<mxfile host="app.diagrams.net" modified="2022-11-22T12:14:03.167Z" agent="5.0 (Macintosh; Intel Mac OS X 10_15_7) AppleWebKit/537.36 (KHTML, like Gecko) Chrome/107.0.0.0 Safari/537.36" etag="WWcY17GCojAGea3fx95z" version="20.5.2" type="github">
  <diagram id="UiIqjfkXPCifXplf67Ii" name="第 1 页">
    <mxGraphModel dx="1160" dy="798" grid="1" gridSize="10" guides="1" tooltips="1" connect="1" arrows="1" fold="1" page="1" pageScale="1" pageWidth="827" pageHeight="1169" math="0" shadow="0">
      <root>
        <mxCell id="0" />
        <mxCell id="1" parent="0" />
        <mxCell id="1FnzqijvpU2ymGyB_kNT-1" value="&lt;b&gt;&lt;font style=&quot;font-size: 24px;&quot;&gt;type&lt;/font&gt;&lt;/b&gt;" style="rounded=0;whiteSpace=wrap;html=1;strokeWidth=2;" vertex="1" parent="1">
          <mxGeometry x="160" y="280" width="120" height="60" as="geometry" />
        </mxCell>
        <mxCell id="1FnzqijvpU2ymGyB_kNT-2" value="&lt;span style=&quot;font-size: 24px;&quot;&gt;&lt;b&gt;space ID&lt;/b&gt;&lt;/span&gt;" style="rounded=0;whiteSpace=wrap;html=1;strokeWidth=2;" vertex="1" parent="1">
          <mxGeometry x="280" y="280" width="120" height="60" as="geometry" />
        </mxCell>
        <mxCell id="1FnzqijvpU2ymGyB_kNT-3" value="&lt;span style=&quot;font-size: 24px;&quot;&gt;&lt;b&gt;page number&lt;/b&gt;&lt;/span&gt;" style="rounded=0;whiteSpace=wrap;html=1;strokeWidth=2;" vertex="1" parent="1">
          <mxGeometry x="400" y="280" width="220" height="60" as="geometry" />
        </mxCell>
        <mxCell id="1FnzqijvpU2ymGyB_kNT-4" value="&lt;span style=&quot;font-size: 24px;&quot;&gt;&lt;b&gt;offset&lt;/b&gt;&lt;/span&gt;" style="rounded=0;whiteSpace=wrap;html=1;strokeWidth=2;dashed=1;" vertex="1" parent="1">
          <mxGeometry x="620" y="280" width="110" height="60" as="geometry" />
        </mxCell>
        <mxCell id="1FnzqijvpU2ymGyB_kNT-5" value="&lt;span style=&quot;font-size: 24px;&quot;&gt;&lt;b&gt;len&lt;/b&gt;&lt;/span&gt;" style="rounded=0;whiteSpace=wrap;html=1;strokeWidth=2;dashed=1;" vertex="1" parent="1">
          <mxGeometry x="729" y="280" width="110" height="60" as="geometry" />
        </mxCell>
        <mxCell id="1FnzqijvpU2ymGyB_kNT-6" value="&lt;span style=&quot;font-size: 24px;&quot;&gt;&lt;b&gt;data&lt;/b&gt;&lt;/span&gt;" style="rounded=0;whiteSpace=wrap;html=1;strokeWidth=2;" vertex="1" parent="1">
          <mxGeometry x="839" y="280" width="181" height="60" as="geometry" />
        </mxCell>
      </root>
    </mxGraphModel>
  </diagram>
</mxfile>
